{"title":"Stolichani v poveche - Season 4 - Episode 4","uid":7715197,"size":621950904,"categoryP":"video","categoryS":"tv_shows","magnet":"?xt=urn:btih:dad44118cdc4a38801d722728424d046dab37e51&amp;dn=Stolichani+v+poveche+-+Season+4+-+Episode+4&amp;tr=udp%3A%2F%2Ftracker.openbittorrent.com%3A80&amp;tr=udp%3A%2F%2Fopen.demonii.com%3A1337&amp;tr=udp%3A%2F%2Ftracker.coppersurfer.tk%3A6969&amp;tr=udp%3A%2F%2Fexodus.desync.com%3A6969","seeders":1,"leechers":0,"uploader":null,"files":1,"time":1349909886,"description":"HQ WebRip\n\nFormat                                   : AVI\nFormat/Info                              : Audio Video Interleave\nFile size                                : 593 MiB\nDuration                                 : 45mn 30s\nOverall bit rate                         : 1 822 Kbps\n\nVideo\nID                                       : 0\nFormat                                   : MPEG-4 Visual\nFormat profile                           : Advanced Simple@L5\nFormat settings, BVOP                    : 2\nFormat settings, QPel                    : No\nFormat settings, GMC                     : No warppoints\nFormat settings, Matrix                  : Default (H.263)\nMuxing mode                              : Packed bitstream\nCodec ID                                 : XVID\nCodec ID/Hint                            : XviD\nDuration                                 : 45mn 30s\nBit rate                                 : 1 683 Kbps\nWidth                                    : 720 pixels\nHeight                                   : 400 pixels\nDisplay aspect ratio                     : 16:9\nFrame rate                               : 25.000 fps\nColor space                              : YUV\nChroma subsampling                       : 4:2:0\nBit depth                                : 8 bits\nScan type                                : Progressive\nCompression mode                         : Lossy\nBits/(Pixel*Frame)                       : 0.234\nStream size                              : 548 MiB (92%)\nWriting library                          : XviD 1.1.2 (UTC 2006-11-01)\n\nAudio\nID                                       : 1\nFormat                                   : AC-3\nFormat/Info                              : Audio Coding 3\nMode extension                           : CM (complete main)\nFormat settings, Endianness              : Big\nCodec ID                                 : 2000\nDuration                                 : 45mn 30s\nBit rate mode                            : Constant\nBit rate                                 : 128 Kbps\nChannel(s)                               : 2 channels\nChannel positions                        : Front: L R\nSampling rate                            : 48.0 KHz\nBit depth                                : 16 bits\nCompression mode                         : Lossy\nStream size                              : 41.7 MiB (7%)\nAlignment                                : Aligned on interleaves\nInterleave, duration                     : 32 ms (0.80 video frame)\nInterleave, preload duration             : 512 ms\n\n","torrent":{"xt":"urn:btih:dad44118cdc4a38801d722728424d046dab37e51","amp;dn":"Stolichani+v+poveche+-+Season+4+-+Episode+4","amp;tr":["udp%3A%2F%2Ftracker.openbittorrent.com%3A80","udp%3A%2F%2Fopen.demonii.com%3A1337","udp%3A%2F%2Ftracker.coppersurfer.tk%3A6969","udp%3A%2F%2Fexodus.desync.com%3A6969"],"infoHash":"dad44118cdc4a38801d722728424d046dab37e51","infoHashBuffer":{"type":"Buffer","data":[218,212,65,24,205,196,163,136,1,215,34,114,132,36,208,70,218,179,126,81]},"announce":[],"urlList":[]}}